<svg width="25" height="26" viewBox="0 0 25 26" fill="none" xmlns="http://www.w3.org/2000/svg">
<path d="M12.2739 2.93877C15.5533 2.93877 15.9416 2.95315 17.2313 3.01069C18.43 3.06343 19.0772 3.26479 19.5087 3.4326C20.0793 3.65315 20.4916 3.92164 20.9183 4.34835C21.3498 4.77985 21.6135 5.18738 21.834 5.75792C22.0018 6.18943 22.2032 6.84147 22.256 8.0353C22.3135 9.32981 22.3279 9.71816 22.3279 12.9928C22.3279 16.2722 22.3135 16.6606 22.256 17.9503C22.2032 19.1489 22.0018 19.7962 21.834 20.2277C21.6135 20.7982 21.345 21.2105 20.9183 21.6372C20.4868 22.0687 20.0793 22.3324 19.5087 22.553C19.0772 22.7208 18.4252 22.9222 17.2313 22.9749C15.9368 23.0324 15.5485 23.0468 12.2739 23.0468C8.99444 23.0468 8.60608 23.0324 7.31637 22.9749C6.11775 22.9222 5.4705 22.7208 5.03899 22.553C4.46845 22.3324 4.05613 22.0639 3.62942 21.6372C3.19792 21.2057 2.93422 20.7982 2.71367 20.2277C2.54587 19.7962 2.3445 19.1441 2.29176 17.9503C2.23423 16.6558 2.21984 16.2674 2.21984 12.9928C2.21984 9.71337 2.23423 9.32501 2.29176 8.0353C2.3445 6.83668 2.54587 6.18943 2.71367 5.75792C2.93422 5.18738 3.20271 4.77505 3.62942 4.34835C4.06092 3.91684 4.46845 3.65315 5.03899 3.4326C5.4705 3.26479 6.12255 3.06343 7.31637 3.01069C8.60608 2.95315 8.99444 2.93877 12.2739 2.93877ZM12.2739 0.728516C8.9417 0.728516 8.52458 0.742899 7.21569 0.800433C5.91159 0.857967 5.01502 1.06892 4.23832 1.37098C3.42805 1.68741 2.74244 2.10453 2.06162 2.79014C1.37601 3.47096 0.958895 4.15657 0.64246 4.96204C0.340408 5.74354 0.129451 6.63531 0.0719171 7.93941C0.0143834 9.2531 0 9.67022 0 13.0024C0 16.3345 0.0143834 16.7517 0.0719171 18.0606C0.129451 19.3646 0.340408 20.2612 0.64246 21.0379C0.958895 21.8482 1.37601 22.5338 2.06162 23.2146C2.74244 23.8954 3.42805 24.3173 4.23352 24.629C5.01502 24.931 5.90679 25.142 7.21089 25.1995C8.51978 25.2571 8.9369 25.2714 12.2691 25.2714C15.6012 25.2714 16.0183 25.2571 17.3272 25.1995C18.6313 25.142 19.5279 24.931 20.3046 24.629C21.1101 24.3173 21.7957 23.8954 22.4765 23.2146C23.1573 22.5338 23.5792 21.8482 23.8909 21.0427C24.1929 20.2612 24.4039 19.3694 24.4614 18.0653C24.5189 16.7565 24.5333 16.3393 24.5333 13.0072C24.5333 9.67501 24.5189 9.25789 24.4614 7.949C24.4039 6.6449 24.1929 5.74833 23.8909 4.97163C23.5888 4.15657 23.1717 3.47096 22.4861 2.79014C21.8053 2.10933 21.1197 1.68741 20.3142 1.37577C19.5327 1.07372 18.6409 0.862761 17.3368 0.805227C16.0231 0.742899 15.606 0.728516 12.2739 0.728516Z" fill="#1A1A1A"/>
<path d="M12.274 6.69434C8.79318 6.69434 5.96924 9.51828 5.96924 12.9991C5.96924 16.4799 8.79318 19.3038 12.274 19.3038C15.7548 19.3038 18.5787 16.4799 18.5787 12.9991C18.5787 9.51828 15.7548 6.69434 12.274 6.69434ZM12.274 17.0888C10.0158 17.0888 8.18429 15.2573 8.18429 12.9991C8.18429 10.7409 10.0158 8.90938 12.274 8.90938C14.5322 8.90938 16.3637 10.7409 16.3637 12.9991C16.3637 15.2573 14.5322 17.0888 12.274 17.0888Z" fill="#1A1A1A"/>
</svg>
