<svg width="26" height="20" viewBox="0 0 26 20" fill="none" xmlns="http://www.w3.org/2000/svg">
<path d="M8.39795 20C17.8296 20 22.9897 12.3046 22.9897 5.63322C22.9897 5.41688 22.9849 5.19574 22.9751 4.9794C23.9789 4.26466 24.8452 3.37935 25.5332 2.36507C24.5983 2.7746 23.6057 3.04206 22.5894 3.15831C23.6595 2.52672 24.4608 1.53451 24.8447 0.365627C23.8379 0.953083 22.7369 1.36748 21.5889 1.59106C20.8153 0.78181 19.7926 0.24599 18.6787 0.0664421C17.5649 -0.113105 16.4219 0.0736207 15.4267 0.597751C14.4314 1.12188 13.6392 1.95422 13.1726 2.96609C12.706 3.97796 12.5909 5.11299 12.8452 6.1957C10.8066 6.09498 8.8123 5.57358 6.99152 4.6653C5.17073 3.75702 3.56413 2.48213 2.27588 0.923299C1.62112 2.03477 1.42076 3.35001 1.71553 4.6017C2.01029 5.85339 2.77806 6.94762 3.86279 7.66199C3.04844 7.63654 2.25193 7.42066 1.53906 7.03221V7.09471C1.53833 8.26111 1.94789 9.39178 2.69811 10.2945C3.44833 11.1972 4.49291 11.8163 5.6543 12.0464C4.89993 12.2497 4.10818 12.2793 3.34033 12.133C3.66805 13.1361 4.30568 14.0135 5.16421 14.6426C6.02275 15.2718 7.05937 15.6213 8.12939 15.6425C6.31281 17.0474 4.0688 17.8095 1.75879 17.8058C1.34913 17.8052 0.939869 17.7805 0.533203 17.7318C2.87993 19.2141 5.6098 20.0014 8.39795 20Z" fill="#1A1A1A"/>
</svg>
